<mxfile host="app.diagrams.net" modified="2024-06-17T17:08:58.160Z" agent="Mozilla/5.0 (Windows NT 10.0; Win64; x64) AppleWebKit/537.36 (KHTML, like Gecko) Chrome/125.0.0.0 Safari/537.36" etag="Eqw2yrq4Tu6kAyRgvKX_" version="24.5.4" type="github">
  <diagram id="C5RBs43oDa-KdzZeNtuy" name="Page-1">
    <mxGraphModel dx="1434" dy="1915" grid="1" gridSize="10" guides="1" tooltips="1" connect="1" arrows="1" fold="1" page="1" pageScale="1" pageWidth="827" pageHeight="1169" math="0" shadow="0">
      <root>
        <mxCell id="WIyWlLk6GJQsqaUBKTNV-0" />
        <mxCell id="WIyWlLk6GJQsqaUBKTNV-1" parent="WIyWlLk6GJQsqaUBKTNV-0" />
        <mxCell id="Jf9rwaGJK0nAaPa2Cinw-20" value="" style="edgeStyle=orthogonalEdgeStyle;rounded=0;orthogonalLoop=1;jettySize=auto;html=1;" edge="1" parent="WIyWlLk6GJQsqaUBKTNV-1" source="WIyWlLk6GJQsqaUBKTNV-3" target="Jf9rwaGJK0nAaPa2Cinw-19">
          <mxGeometry relative="1" as="geometry">
            <Array as="points">
              <mxPoint x="640" y="280" />
              <mxPoint x="640" y="280" />
            </Array>
          </mxGeometry>
        </mxCell>
        <mxCell id="Jf9rwaGJK0nAaPa2Cinw-30" value="" style="edgeStyle=orthogonalEdgeStyle;rounded=0;orthogonalLoop=1;jettySize=auto;html=1;" edge="1" parent="WIyWlLk6GJQsqaUBKTNV-1" source="WIyWlLk6GJQsqaUBKTNV-3" target="Jf9rwaGJK0nAaPa2Cinw-29">
          <mxGeometry relative="1" as="geometry" />
        </mxCell>
        <mxCell id="WIyWlLk6GJQsqaUBKTNV-3" value="API Gateway" style="rounded=1;whiteSpace=wrap;html=1;fontSize=12;glass=0;strokeWidth=1;shadow=0;" parent="WIyWlLk6GJQsqaUBKTNV-1" vertex="1">
          <mxGeometry x="750" y="270" width="120" height="50" as="geometry" />
        </mxCell>
        <mxCell id="Jf9rwaGJK0nAaPa2Cinw-0" value="Команды с фронтенда" style="rounded=1;whiteSpace=wrap;html=1;fontSize=12;glass=0;strokeWidth=1;shadow=0;" vertex="1" parent="WIyWlLk6GJQsqaUBKTNV-1">
          <mxGeometry x="580" y="-20" width="120" height="40" as="geometry" />
        </mxCell>
        <mxCell id="Jf9rwaGJK0nAaPa2Cinw-8" value="" style="endArrow=classic;html=1;rounded=0;exitX=0.5;exitY=1;exitDx=0;exitDy=0;entryX=0.5;entryY=0;entryDx=0;entryDy=0;" edge="1" parent="WIyWlLk6GJQsqaUBKTNV-1" source="Jf9rwaGJK0nAaPa2Cinw-0" target="WIyWlLk6GJQsqaUBKTNV-3">
          <mxGeometry width="50" height="50" relative="1" as="geometry">
            <mxPoint x="390" y="270" as="sourcePoint" />
            <mxPoint x="440" y="220" as="targetPoint" />
            <Array as="points">
              <mxPoint x="640" y="200" />
              <mxPoint x="810" y="200" />
            </Array>
          </mxGeometry>
        </mxCell>
        <mxCell id="Jf9rwaGJK0nAaPa2Cinw-13" value="Команды" style="text;html=1;align=center;verticalAlign=middle;resizable=0;points=[];autosize=1;strokeColor=none;fillColor=none;" vertex="1" parent="WIyWlLk6GJQsqaUBKTNV-1">
          <mxGeometry x="695" y="170" width="70" height="30" as="geometry" />
        </mxCell>
        <mxCell id="Jf9rwaGJK0nAaPa2Cinw-19" value="Сервис аутентификации и авторизации" style="rounded=1;whiteSpace=wrap;html=1;fontSize=12;glass=0;strokeWidth=1;shadow=0;" vertex="1" parent="WIyWlLk6GJQsqaUBKTNV-1">
          <mxGeometry x="400" y="270" width="120" height="50" as="geometry" />
        </mxCell>
        <mxCell id="Jf9rwaGJK0nAaPa2Cinw-25" value="" style="endArrow=classic;html=1;rounded=0;entryX=0;entryY=0.75;entryDx=0;entryDy=0;exitX=1;exitY=0.75;exitDx=0;exitDy=0;" edge="1" parent="WIyWlLk6GJQsqaUBKTNV-1" source="Jf9rwaGJK0nAaPa2Cinw-19" target="WIyWlLk6GJQsqaUBKTNV-3">
          <mxGeometry width="50" height="50" relative="1" as="geometry">
            <mxPoint x="360" y="350" as="sourcePoint" />
            <mxPoint x="410" y="300" as="targetPoint" />
            <Array as="points">
              <mxPoint x="650" y="308" />
            </Array>
          </mxGeometry>
        </mxCell>
        <mxCell id="Jf9rwaGJK0nAaPa2Cinw-26" value="Запрос на проверку токена" style="text;html=1;align=center;verticalAlign=middle;resizable=0;points=[];autosize=1;strokeColor=none;fillColor=none;" vertex="1" parent="WIyWlLk6GJQsqaUBKTNV-1">
          <mxGeometry x="525" y="258" width="170" height="30" as="geometry" />
        </mxCell>
        <mxCell id="Jf9rwaGJK0nAaPa2Cinw-27" value="токен" style="text;html=1;align=center;verticalAlign=middle;resizable=0;points=[];autosize=1;strokeColor=none;fillColor=none;" vertex="1" parent="WIyWlLk6GJQsqaUBKTNV-1">
          <mxGeometry x="600" y="288" width="50" height="30" as="geometry" />
        </mxCell>
        <mxCell id="Jf9rwaGJK0nAaPa2Cinw-29" value="Сервис Витрина" style="rounded=1;whiteSpace=wrap;html=1;fontSize=12;glass=0;strokeWidth=1;shadow=0;" vertex="1" parent="WIyWlLk6GJQsqaUBKTNV-1">
          <mxGeometry x="1200" y="270" width="120" height="50" as="geometry" />
        </mxCell>
        <mxCell id="Jf9rwaGJK0nAaPa2Cinw-31" value="показать товары&amp;nbsp;" style="text;html=1;align=center;verticalAlign=middle;resizable=0;points=[];autosize=1;strokeColor=none;fillColor=none;" vertex="1" parent="WIyWlLk6GJQsqaUBKTNV-1">
          <mxGeometry x="940" y="268" width="120" height="30" as="geometry" />
        </mxCell>
        <mxCell id="Jf9rwaGJK0nAaPa2Cinw-33" value="" style="edgeStyle=none;orthogonalLoop=1;jettySize=auto;html=1;rounded=0;exitX=0.5;exitY=1;exitDx=0;exitDy=0;entryX=0.5;entryY=0;entryDx=0;entryDy=0;entryPerimeter=0;" edge="1" parent="WIyWlLk6GJQsqaUBKTNV-1" source="Jf9rwaGJK0nAaPa2Cinw-29" target="Jf9rwaGJK0nAaPa2Cinw-32">
          <mxGeometry width="100" relative="1" as="geometry">
            <mxPoint x="970" y="530" as="sourcePoint" />
            <mxPoint x="1070" y="530" as="targetPoint" />
            <Array as="points">
              <mxPoint x="1260" y="420" />
            </Array>
          </mxGeometry>
        </mxCell>
        <mxCell id="Jf9rwaGJK0nAaPa2Cinw-32" value="Общая БД" style="shape=cylinder3;whiteSpace=wrap;html=1;boundedLbl=1;backgroundOutline=1;size=15;" vertex="1" parent="WIyWlLk6GJQsqaUBKTNV-1">
          <mxGeometry x="1200" y="530" width="120" height="140" as="geometry" />
        </mxCell>
        <mxCell id="Jf9rwaGJK0nAaPa2Cinw-34" value="Запрос товаров из БД" style="text;html=1;align=center;verticalAlign=middle;resizable=0;points=[];autosize=1;strokeColor=none;fillColor=none;rotation=90;" vertex="1" parent="WIyWlLk6GJQsqaUBKTNV-1">
          <mxGeometry x="1205" y="408" width="150" height="30" as="geometry" />
        </mxCell>
      </root>
    </mxGraphModel>
  </diagram>
</mxfile>
